/* XPM */
static char * C:\Users\niels\Desktop\cons_xpm[] = {
"50 50 513 2",
"  	c None",
". 	c #8A7318",
"+ 	c #8E7619",
"@ 	c #8F7819",
"# 	c #90791A",
"$ 	c #90781A",
"% 	c #8D7519",
"& 	c #897117",
"* 	c #836C16",
"= 	c #7C6514",
"- 	c #8D7619",
"; 	c #957D1B",
"> 	c #9F871E",
", 	c #A99020",
"' 	c #B09621",
") 	c #B49A21",
"! 	c #B79D22",
"~ 	c #B99E22",
"{ 	c #B79C22",
"] 	c #B49921",
"^ 	c #AE9320",
"/ 	c #A48A1D",
"( 	c #957C1A",
"_ 	c #856C15",
": 	c #796113",
"< 	c #977F1B",
"[ 	c #A78E1F",
"} 	c #B29821",
"| 	c #BDA223",
"1 	c #CEB42E",
"2 	c #DFCA43",
"3 	c #E8D445",
"4 	c #ECD63C",
"5 	c #EBD234",
"6 	c #E9CE2E",
"7 	c #E4C728",
"8 	c #DABC26",
"9 	c #CCAF24",
"0 	c #BFA222",
"a 	c #B49720",
"b 	c #A3871C",
"c 	c #886E15",
"d 	c #967E1B",
"e 	c #A1891E",
"f 	c #B19721",
"g 	c #C2A827",
"h 	c #E3D383",
"i 	c #F9F2BD",
"j 	c #FCF6A5",
"k 	c #F5E773",
"l 	c #EFD84D",
"m 	c #EACF3E",
"n 	c #E8CB39",
"o 	c #E7CA37",
"p 	c #E7C935",
"q 	c #EBCD32",
"r 	c #EDCF2E",
"s 	c #EBCC28",
"t 	c #D8B925",
"u 	c #C7A823",
"v 	c #C0A023",
"w 	c #A3851C",
"x 	c #816513",
"y 	c #947B19",
"z 	c #A88F1F",
"A 	c #B89E22",
"B 	c #DBC76C",
"C 	c #FBF7DA",
"D 	c #FBF5CC",
"E 	c #F0DC6A",
"F 	c #E9CD38",
"G 	c #E7CB36",
"H 	c #E6C835",
"I 	c #E3C534",
"J 	c #E2C334",
"K 	c #E2C233",
"L 	c #E1C132",
"M 	c #E2C132",
"N 	c #EBCB2D",
"O 	c #EBCC27",
"P 	c #D4B424",
"Q 	c #D2B228",
"R 	c #C1A226",
"S 	c #886B14",
"T 	c #967C19",
"U 	c #AA901F",
"V 	c #BDA222",
"W 	c #E7D992",
"X 	c #FEFDEA",
"Y 	c #F4E591",
"Z 	c #EACF39",
"` 	c #E8CB37",
" .	c #E2C333",
"..	c #DAB82F",
"+.	c #D2AD2A",
"@.	c #CDA728",
"#.	c #CCA527",
"$.	c #CFA928",
"%.	c #D5B02B",
"&.	c #DAB62D",
"*.	c #DEBD30",
"=.	c #E0BF32",
"-.	c #DFBD31",
";.	c #E2C12F",
">.	c #EECE28",
",.	c #DEBE24",
"'.	c #E0C32F",
").	c #D4B935",
"!.	c #8E6E14",
"~.	c #A88D1D",
"{.	c #BFA323",
"].	c #E8D98C",
"^.	c #FEFCE6",
"/.	c #F1DC6C",
"(.	c #EACE38",
"_.	c #E4C635",
":.	c #D7B42E",
"<.	c #C19A25",
"[.	c #B1861E",
"}.	c #AA7F1C",
"|.	c #A67A1B",
"1.	c #AB7F1C",
"2.	c #B58B20",
"3.	c #BF9623",
"4.	c #D8B42C",
"5.	c #DEBC30",
"6.	c #DDBB30",
"7.	c #DEBC2F",
"8.	c #EECD29",
"9.	c #E3C124",
"0.	c #EED843",
"a.	c #CFBA41",
"b.	c #A2881B",
"c.	c #BDA122",
"d.	c #E0CB5B",
"e.	c #FEFCE3",
"f.	c #F0DB68",
"g.	c #CDA729",
"h.	c #A47718",
"i.	c #B4881E",
"j.	c #C39924",
"k.	c #D3AD29",
"l.	c #DEBA2E",
"m.	c #DBB92F",
"n.	c #DEBB2E",
"o.	c #F0CE27",
"p.	c #E5C326",
"q.	c #F8EB6D",
"r.	c #BC9F33",
"s.	c #A58619",
"t.	c #B79B1F",
"u.	c #D3B626",
"v.	c #FBF5BF",
"w.	c #F4E382",
"x.	c #EBCF38",
"y.	c #C9A126",
"z.	c #B0821B",
"A.	c #C19723",
"B.	c #D2AC29",
"C.	c #DCB82D",
"D.	c #DAB72E",
"E.	c #E0BC2D",
"F.	c #F2D025",
"G.	c #EDD137",
"H.	c #F0E48C",
"I.	c #A88116",
"J.	c #AF911A",
"K.	c #CBAE24",
"L.	c #EEDA55",
"M.	c #FAF3A2",
"N.	c #ECD038",
"O.	c #E6C935",
"P.	c #CFA828",
"Q.	c #B5871C",
"R.	c #C69B23",
"S.	c #D5B02A",
"T.	c #DAB72D",
"U.	c #E9C629",
"V.	c #F1CE24",
"W.	c #FAEE72",
"X.	c #CFB236",
"Y.	c #B99117",
"Z.	c #C0A11E",
"`.	c #DEBF25",
" +	c #FBF074",
".+	c #F1DA4E",
"++	c #EACE37",
"@+	c #DCB92D",
"#+	c #BD901E",
"$+	c #CCA326",
"%+	c #DAB62B",
"&+	c #D8B42D",
"*+	c #DEB92D",
"=+	c #F5D224",
"-+	c #F5DC37",
";+	c #EFDE58",
">+	c #BF9017",
",+	c #C49C19",
"'+	c #D3B322",
")+	c #EED129",
"!+	c #FBEE5C",
"~+	c #E7C934",
"{+	c #CDA425",
"]+	c #D4AE28",
"^+	c #D9B52B",
"/+	c #DCB82E",
"(+	c #EFCA26",
"_+	c #F7D826",
":+	c #FCF14F",
"<+	c #D3A61A",
"[+	c #D3AA1B",
"}+	c #E4C324",
"|+	c #F7DE2F",
"1+	c #F7E246",
"2+	c #ECD036",
"3+	c #E4C12E",
"4+	c #C79A20",
"5+	c #D3AB27",
"6+	c #DCB62A",
"7+	c #DCB82F",
"8+	c #E8C229",
"9+	c #FAD824",
"0+	c #FDF03F",
"a+	c #E9C122",
"b+	c #E4B81C",
"c+	c #FAE230",
"d+	c #F5DC3B",
"e+	c #EED136",
"f+	c #E1BC2B",
"g+	c #C8991E",
"h+	c #D6AB25",
"i+	c #DDB829",
"j+	c #DDB930",
"k+	c #E7C12C",
"l+	c #FBD723",
"m+	c #FDEC31",
"n+	c #F5D326",
"o+	c #F3C61E",
"p+	c #F8D826",
"q+	c #FBE230",
"r+	c #F8E136",
"s+	c #F3D936",
"t+	c #E4BE28",
"u+	c #D49F1A",
"v+	c #E2B422",
"w+	c #E3BC27",
"x+	c #E3BE2E",
"y+	c #EDC82F",
"z+	c #FAD422",
"A+	c #FDE92A",
"B+	c #FBDD25",
"C+	c #F7CA1F",
"D+	c #F9D727",
"E+	c #FBDF2D",
"F+	c #FDEB33",
"G+	c #FDF13A",
"H+	c #F6D226",
"I+	c #F5CC22",
"J+	c #F5D02B",
"K+	c #F7D532",
"L+	c #FAD222",
"M+	c #FCE327",
"N+	c #FAD923",
"O+	c #DFB323",
"P+	c #ECC92A",
"Q+	c #F9DC2B",
"R+	c #FDED32",
"S+	c #FEF942",
"T+	c #F8D829",
"U+	c #F5C51E",
"V+	c #F1C71F",
"W+	c #F6D434",
"X+	c #FAD935",
"Y+	c #F8CF23",
"Z+	c #EFC726",
"`+	c #E0B020",
" @	c #CDA223",
".@	c #E1BD2A",
"+@	c #F3D42C",
"@@	c #FDEA30",
"#@	c #FEF84D",
"$@	c #F3D932",
"%@	c #EBB81B",
"&@	c #EABD1E",
"*@	c #DEB51E",
"=@	c #F0D74B",
"-@	c #F8D630",
";@	c #F0C623",
">@	c #DBB125",
",@	c #C8981E",
"'@	c #C39822",
")@	c #D9B42A",
"!@	c #ECCB2C",
"~@	c #FCE62E",
"{@	c #FDF44F",
"]@	c #F4E251",
"^@	c #DFB41E",
"/@	c #D5AC1E",
"(@	c #CCA61E",
"_@	c #F4E469",
":@	c #F6CF25",
"<@	c #E4BB24",
"[@	c #D0A524",
"}@	c #BF901E",
"|@	c #BA8E20",
"1@	c #D1A927",
"2@	c #E3C02D",
"3@	c #F9DE2B",
"4@	c #FBEA3C",
"5@	c #FAF27A",
"6@	c #D7B324",
"7@	c #BE9A1C",
"8@	c #CDB03A",
"9@	c #F7EA80",
"0@	c #F3CA21",
"a@	c #D7AE25",
"b@	c #C99D22",
"c@	c #B98B1E",
"d@	c #AF831E",
"e@	c #C69D24",
"f@	c #DBB62B",
"g@	c #F0D22B",
"h@	c #F8DF2F",
"i@	c #FDF58F",
"j@	c #E4CD5C",
"k@	c #CBA31E",
"l@	c #BF9B1C",
"m@	c #AE8F1C",
"n@	c #E7DB93",
"o@	c #EFD45A",
"p@	c #EAC123",
"q@	c #CFA525",
"r@	c #C09421",
"s@	c #B4871E",
"t@	c #B98D21",
"u@	c #D0AA28",
"v@	c #E2BF2C",
"w@	c #F7DB29",
"x@	c #F4DF41",
"y@	c #F9F089",
"z@	c #CBAD27",
"A@	c #C8A11C",
"B@	c #C09C1B",
"C@	c #A3861A",
"D@	c #C2AD5C",
"E@	c #F7EEB2",
"F@	c #EEC622",
"G@	c #D8AF25",
"H@	c #C99E23",
"I@	c #B88A1E",
"J@	c #AD811F",
"K@	c #C49B24",
"L@	c #D7B22A",
"M@	c #ECCC2A",
"N@	c #F1D32B",
"O@	c #F5E352",
"P@	c #F0DE50",
"Q@	c #BE9F20",
"R@	c #C39E1C",
"S@	c #B8941B",
"T@	c #A0831A",
"U@	c #B0973B",
"V@	c #F6F0CB",
"W@	c #E7C952",
"X@	c #E6BD24",
"Y@	c #CDA325",
"Z@	c #C19521",
"`@	c #B2851D",
" #	c #B3881F",
".#	c #CBA326",
"+#	c #DAB52B",
"@#	c #F1D129",
"##	c #E8CA2B",
"$#	c #EED73E",
"%#	c #E1C533",
"&#	c #B89A20",
"*#	c #B6961D",
"=#	c #A6871A",
"-#	c #9A801B",
";#	c #AE963C",
">#	c #F2EDCD",
",#	c #E7D17F",
"'#	c #EAC222",
")#	c #D0A625",
"!#	c #C69C23",
"~#	c #B6891E",
"{#	c #A6791C",
"]#	c #BA9021",
"^#	c #CEA627",
"/#	c #DCB72A",
"(#	c #F0D028",
"_#	c #E1C328",
":#	c #DCBF2D",
"<#	c #D1B228",
"[#	c #BB9D21",
"}#	c #AF911D",
"|#	c #B0911D",
"1#	c #B9991D",
"2#	c #B5951D",
"3#	c #A7891B",
"4#	c #9B8019",
"5#	c #A0851F",
"6#	c #C0AD64",
"7#	c #F6F2D3",
"8#	c #E5D083",
"9#	c #E8C122",
"0#	c #D3AA25",
"a#	c #C89D24",
"b#	c #BB8F20",
"c#	c #B0841F",
"d#	c #A87C1D",
"e#	c #BD9322",
"f#	c #DAB529",
"g#	c #EDCC27",
"h#	c #E0C026",
"i#	c #D0B128",
"j#	c #C3A525",
"k#	c #B79921",
"l#	c #AE911E",
"m#	c #A68A1D",
"n#	c #9E841C",
"o#	c #9D821A",
"p#	c #9B801B",
"q#	c #9C811C",
"r#	c #A4871F",
"s#	c #BBA447",
"t#	c #E4DBAE",
"u#	c #F6F0C6",
"v#	c #DEC35C",
"w#	c #E7BF22",
"x#	c #D2AA25",
"y#	c #C89E24",
"z#	c #BE9221",
"A#	c #B0831D",
"B#	c #A87C1B",
"C#	c #BC9222",
"D#	c #CBA327",
"E#	c #D5AE29",
"F#	c #E7C328",
"G#	c #E7C625",
"H#	c #D4B427",
"I#	c #C8AA29",
"J#	c #C0A32A",
"K#	c #B89C2A",
"L#	c #B5992A",
"M#	c #B99E31",
"N#	c #C4AD47",
"O#	c #D8C970",
"P#	c #EFE598",
"Q#	c #F2E9AC",
"R#	c #DFCA75",
"S#	c #E0BB23",
"T#	c #E2BA24",
"U#	c #CEA525",
"V#	c #C79C24",
"W#	c #BC9121",
"X#	c #A77B1C",
"Y#	c #B88D21",
"Z#	c #C69D25",
"`#	c #CFA727",
" $	c #D8B128",
".$	c #E6C227",
"+$	c #E5C224",
"@$	c #DCBB25",
"#$	c #D4B42C",
"$$	c #D6B838",
"%$	c #DAC045",
"&$	c #DCC44E",
"*$	c #DBBF47",
"=$	c #DAB92A",
"-$	c #E0BB22",
";$	c #E2BB24",
">$	c #CAA025",
",$	c #C49923",
"'$	c #B98D1F",
")$	c #AE821C",
"!$	c #A57A1F",
"~$	c #BD9323",
"{$	c #C79E25",
"]$	c #CDA526",
"^$	c #D1AA27",
"/$	c #D8B127",
"($	c #E1BA26",
"_$	c #E3BC25",
":$	c #E2BB25",
"<$	c #DFB825",
"[$	c #D6AF26",
"}$	c #C9A025",
"|$	c #C59A23",
"1$	c #BD9121",
"2$	c #B3871E",
"3$	c #AC801F",
"4$	c #A87C1F",
"5$	c #AF841F",
"6$	c #B98F21",
"7$	c #C8A025",
"8$	c #CAA125",
"9$	c #C9A125",
"0$	c #C79E24",
"a$	c #C09623",
"b$	c #B98E20",
"c$	c #B2861E",
"d$	c #AC801E",
"e$	c #A5791D",
"f$	c #A97E1D",
"g$	c #AD811E",
"h$	c #B2861F",
"i$	c #B48920",
"j$	c #B58A20",
"k$	c #AE821E",
"l$	c #AB7F1D",
"m$	c #A87C1C",
"n$	c #A57A23",
"                                                                                                    ",
"                                                                                                    ",
"                                                                                                    ",
"                                                                                                    ",
"                                                                                                    ",
"                                                                                                    ",
"                                                                                                    ",
"                                                                                                    ",
"                                        . + @ # $ % & * =                                           ",
"                                  - ; > , ' ) ! ~ { ] ^ / ( _ :                                     ",
"                                < [ } | 1 2 3 4 5 6 7 8 9 0 a b c                                   ",
"                            d e f g h i j k l m n o p q r s t u v w x                               ",
"                          y z A B C D E F G H I J J J K L M N O P Q R S                             ",
"                        T U V W X Y Z `  ...+.@.#.$.%.&.*.=.-.;.>.,.'.).!.                          ",
"                        ~.{.].^./.(._.:.<.[.}.|.|.1.2.3.#.4.5.6.7.8.9.0.a.                          ",
"                      b.c.d.e.f.(. .g.[.h.              i.j.k.l.m.n.o.p.q.r.                        ",
"                    s.t.u.v.w.x. .y.z.                      A.B.C.D.E.F.G.H.I.                      ",
"                    J.K.L.M.N.O.P.Q.                          R.S.T.&.U.V.W.X.                      ",
"                  Y.Z.`. +.+++@+#+                              $+%+&+*+=+-+;+>+                    ",
"                  ,+'+)+!+G.~+{+                                  ]+^+/+(+_+:+<+                    ",
"                  [+}+|+1+2+3+4+                                  5+6+7+8+9+0+a+                    ",
"                  b+F.c+d+e+f+g+                                  h+i+j+k+l+m+n+                    ",
"                  o+p+q+r+s+t+u+                                  v+w+x+y+z+A+B+                    ",
"                  C+D+E+F+G+H+                                      I+J+K+L+M+N+                    ",
"                  O+P+Q+R+S+T+                                    U+V+W+X+Y+Z+`+                    ",
"                   @.@+@@@#@$@%@                                  &@*@=@-@;@>@,@                    ",
"                  '@)@!@~@{@]@^@                                  /@(@_@:@<@[@}@                    ",
"                  |@1@2@3@4@5@6@                                  7@8@9@0@a@b@c@                    ",
"                  d@e@f@g@h@i@j@k@                              l@m@n@o@p@q@r@s@                    ",
"                    t@u@v@w@x@y@z@A@                          B@C@D@E@F@G@H@I@                      ",
"                    J@K@L@M@N@O@P@Q@R@                      S@T@U@V@W@X@Y@Z@`@                      ",
"                       #.#+#@###$#%#&#*#                  =#-#;#>#,#'#)#!#~#                        ",
"                      {#]#^#/#(#_#:#<#[#}#|#1#      2#3#4#5#6#7#8#9#0#a#b#c#                        ",
"                        d#e#^#f#g#h#i#j#k#l#m#n#o#p#q#r#s#t#u#v#w#x#y#z#A#                          ",
"                          B#C#D#E#F#G#H#I#J#K#L#M#N#O#P#Q#R#S#T#U#V#W#z.                            ",
"                            X#Y#Z#`# $.$+$@$#$$$%$&$*$=$-$;$0#>$,$'$)$                              ",
"                              !$c#~${$]$^$/$($_$_$:$<$[$]$}$|$1$2$3$                                ",
"                                  4$5$6$A.e@7$8$9$}$0$|$a$b$c$d$                                    ",
"                                      e$f$g$h$i$j$i$h$k$l$m$                                        ",
"                                                n$                                                  ",
"                                                                                                    ",
"                                                                                                    ",
"                                                                                                    ",
"                                                                                                    ",
"                                                                                                    ",
"                                                                                                    ",
"                                                                                                    ",
"                                                                                                    ",
"                                                                                                    ",
"                                                                                                    "};
