/* XPM */
static char *_2290958b9a64ffb9080ff42f4e2ee48uvMG0BpCTUdGYz0n[] = {
/* columns rows colors chars-per-pixel */
"50 50 3 1 ",
"  c #3E734E",
". c #7AB055",
"X c #4D9262",
/* pixels */
"XXXXXXXXXXXXXXXXXXXXXXXXXXXXXXXXXXXXXXXXXXXXXXXXXX",
"XXXXXXXXXXXXXXXXXXXXXXXX.XXXXXXXXXXXXXXXXXXXXXXXXX",
"XXXXXXXXXXXXXXXXXXXXXXX..XXXXXXXXXXXXXXXXXXXXXXXXX",
"XXXXXXXXXXXXXXXXXXXX.XX..XXXXXXXXXX.XXXXXXXXXXXXXX",
"XXXXXXXXXXXXXXXXXXXX.. .XXXXXXXXXXX.XXXXXXXXXXXXXX",
"XXXXXXXXXXXXXXXXXXXX .. XXXXXXXXX.X.XXXXXXXXXXXXXX",
"XXXXXXXXXXXXXXXXXXXXX  XXXXXXXXXX.X.XXXXXXXXXXXXXX",
"XXXXXXXXXXXXXXXXXXXXXXXXXXXXXXXXX.XXXXXXXXXXXXXXXX",
"XXXXXXXXXXXXXXXXXXXXXXXXXXXXXXXXXXXXXXXXXXXXXXXXXX",
"XXXXXXXXXXXXXXXXXXXXXXXXXXXXXXXXXXXXXXXXXXXXXXXXXX",
"XXXXXXXXXXXXXXXXXXXXXXXXXXXXXXXX XXXXXXXXXXXXXXXXX",
"XXXXXXXXXXXXXXXXXXXXXXXXXXXXXXX X XXXXXXXXXXXXXXXX",
"XXXXXXXXXXXXXXXXXXXXXXXXXXXXXXXX XXXXXXXXXXXXXXXXX",
"XXXXXXXXXXXXXXXXXXXXXXXXXXXXXXXXXXXXXXXXXXXXXXXXXX",
"XXXXXXXXXXXXXXXXXXXXXXXXXXXXXXXXXXXXXXXXXXXXXXXXXX",
"XXXXXXXXXXXXXXXXXXXXXXXXXXX.XXXXXXXXXXXXXXXXXXXXXX",
"XXXXXXXXXXXXXXXXXXXXXXXXXXX..XXXXXXXXXXXXXXXXXXXXX",
".XXXXXXXXXXXXXXX.XXXXXXXXXX..XX.XXXXXXXXXXXXXXXXXX",
".XXXXXXXXXXXXXXX.XXXXXXXXXXX. ..XXXXXXXXXXXXXXXXXX",
".X.XXXXXXXXXXXXX.X.XXXXXXXXX .. XXXXXXXXXXXXXXXXXX",
".X.XXXXXXXXXXXXX.X.XXXXXXXXXX  XXXXXXXXXXXXXXXXXXX",
"XX.XXXXXXXXXXXXXXX.XXXXXXXXXXXXXXXXXXXXXXXXXXXXXXX",
"XXXXXXXXXXXXXXXXXXXXXXXXXXXXXXXXXXXXXXXXXXXXXXXXXX",
"XXXXXXXXXXXXXXXXXXXXXXXXXXXXXXXXXXXXXXXXXXXXXXXXXX",
"XXXXXXXXXX.XXXXXXXXXXXXXXXXXXXXXXXXXXXXXXX.XXXXXXX",
"XXXXXXXXX.X.XXXXXXXXXXXXXXXXXXXXXXXXXXXXX.X.XXXXXX",
"XXXXXXXXXX.XXXXXXXXXXXXXXXXXXXXXXXXXXXXXXX.XXXXXXX",
"XXXXXXXXXXXXXXXXXXXXXXXXXXXXXXXXXXXXXXXXXXXXXXXXXX",
"XXXXXXXXXXXXXXXXXXXXXXXXXXXXXXXXXXXXXXXXXXXXXXXXXX",
"XXXXXXXXXXXXXXXXXXXXXXXXXXXXXXXXXXXXXXXXXXXXXXXXXX",
"XXXXXXXXXXXXXXXXXXXX XXXXXXXXXXXXXXXXXXXXXXXXXXXXX",
".XXXXXXXXXXXXXXXXXX X XXXXXXXXXXXXXXXXXXXXXXXXXXXX",
"..X..XXXXXXXXXXXXXXX XXXXXXXXXXXXXXXXXXXXXXXXXXXXX",
"X...XXXXXXXXXXXXXXXXXXXXXXXXXXXXXXX.XXXXXXXXXXX..X",
"X . XXXXXXXXXXXXXXXXXXXXXXXXXXXXX.X.XXXXXXXXXXXX..",
"X  XXXXXXXXXXXXXXXXXXXXXXXXXXXXXX.X.XXXXXXXXXXXXX.",
"XXXXXXXXXXXXXXXXXXXXXXXXXXXXXXXXX.XXXXXXXXXXXXXXX ",
"XXXXXXXXXXXXXXXXXXXXXXXXXXXXXXXXXXXXXXXXXXXXXXXXX ",
"XXXXXXXXXXXXXXXXXXXXXXX.XXXXXXXXXXXXXXXXXXXXXXXXXX",
"XXXXXXXXXXXXXXXXXXXXXX.X.XXXXXXXXXXXXXXXXXXXXXXXXX",
"XXXXXXXXXXXXXXXXXXXXXXX.XXXXXXXXXXXXXXXXXXXXXXXXXX",
"XXXXXXXXXXXXXXXXXXXXXXXXXXXXXXXXXXXXXXXXXXXXXXXXXX",
"XXXXXXXXXXXXXXXXXXXXXXXXXXXXXXXX XXXXXXXXXXXXXXXXX",
"XXXXXXXXXXXXXXXXXXXXXXXXXXXXXXX X XXXXXXXXXXXXXXXX",
"XXXXXXXXXXXXXXXXXXXXXXXXXXXXXXXX XXXXXXXXXXXXXXXXX",
"XXXXXXXXXXXXXXXXXXXXXXXXXXXXXXXXXXXXXXXXXXXXXXXXXX",
"XXXXXXXXXXXXXXXXXXXXXXXXXXXXXXXXXXXXXXXXXXXXXXXXXX",
"XXXXXXXXXXXXXXXXXXXXXXXXXXX.XXXXXXXXXXXXXXXXXXXXXX",
"XXXXXXXXXXXXXXXXXXXXXXXXXXX..XXXXXXXXXXXXXXXXXXXXX",
"XXXXXXXXXXXXXXXX.XXXXXXXXXX..XX.XXXXXXXXXXXXXXXXXX"
};
