/* XPM */
static char *_25f27d802844111c6d27e1f5cd051acqvC5kpJamVSUZiAb[] = {
/* columns rows colors chars-per-pixel */
"50 50 11 1 ",
"  c None",
". c black",
"X c #4A0000",
"o c gray29",
"O c #940000",
"+ c red",
"@ c #B56B4A",
"# c gray58",
"$ c gray71",
"% c #FFB594",
"& c white",
/* pixels */
"                                                  ",
"                                                  ",
"                                                  ",
"                                                  ",
"                                                  ",
"                                                  ",
"                                                  ",
"                                                  ",
"           ++OO                    OO++           ",
"         O+++%%OO                OO%%+++O         ",
"          X+++%%OOO            OOO%%+++X          ",
"           X+++%+OO            OO+%+++X           ",
"           X+++++OOO          OOO+++++X           ",
"           X+++++OOO          OOO+++++X           ",
"            X++++$&$          $&$++++X            ",
"            X+++$&&&$        $&&&$+++X            ",
"            X+++&&..&        &..&&+++X            ",
"            XOOO$&..$        $..&$OOOX            ",
"            O+++O$&$          $&$O+++O            ",
" +       ...++XX+Oo#  X@%%@X  #oO+XX++...       + ",
" +.........++X#oXO o$ @++++@ $o OXo#X++.........+ ",
" +++.....+++Oo#$OO o$#++++++#$o OO$#oO+++.....+++ ",
"  ++++++++++Oo#&$  @o#o....o#o@  $&#oO++++++++++  ",
"  O++++++++OXXO#&$@+..@@%%@@..+@$&#OXXO++++++++O  ",
"   OO++++OOXXXXOo#$O++++++++++O$#oOXXXXOO++++OO   ",
"    OOOOOXXXXOO  o.++OOOOOOOO++.o  OOXXXXOOOOO    ",
"      OXXXXO     O.OOo$$$$$$oOO.O     OXXXXO      ",
"                ##OOO.$$$$$$.OOO##                ",
"            oo$$o#$$O.o&&&&o.O$$#o$$oo            ",
"           oo$&#$o##$#.oooo.#$##o$#&$oo           ",
"           o$$#o$.oo##.####.##oo.$o#$$o           ",
"          o#$$$$.O..oo.####.oo..O.$$$$#o          ",
"         oo.$$.. .OX.o.####.o.XO. ..$$.oo         ",
"         o$#o.    .OO.X####X.OO.    .o#$o         ",
"         o.$#.     ..OX$$$$XO..     .#$.o         ",
"         o. $.       ........       .$ .o         ",
"         o.  #.                    .#  .o         ",
"         .    .                    .    .         ",
"                                                  ",
"                                                  ",
"                                                  ",
"                                                  ",
"                                                  ",
"                                                  ",
"                                                  ",
"                                                  ",
"                                                  ",
"                                                  ",
"                                                  ",
"                                                  "
};
