/* XPM */
static char *_e9e082a486c411ba49cc14fb8333d0eTmoN3ajbRGSMQRTM[] = {
/* columns rows colors chars-per-pixel */
"50 50 12 1 ",
"  c None",
". c #0F1127",
"X c #121228",
"o c #15182E",
"O c #151835",
"+ c #863030",
"@ c #957635",
"# c #9A4040",
"$ c #A88B45",
"% c #D7CE76",
"& c #EEEF87",
"* c #F2F39B",
/* pixels */
"                       **                         ",
"                      %**%                        ",
"                     $%%%%$                       ",
"                     @@%$$$                       ",
"                     @@@$$@                       ",
"                      @@@@  #####              +# ",
"                      ... #########       ####### ",
"                      OO.+####################### ",
"                      OO.+####################### ",
"                      OO.+####################### ",
"                      OO.+####################### ",
"                      OO.+####################### ",
"                      OOO+######################  ",
"                      O.O+######################  ",
"                      O.X+######################  ",
"                      O.O+######################  ",
"                      O.O+######################  ",
"                      O.O+####+#################  ",
"                      O.O+####+#################  ",
"                      O.O++##++#################  ",
"                      O.O+++++++################  ",
"                      O.O+++++++++###########++++ ",
"                      O.O       ++++++++++++++++++",
"                      O.O                         ",
"                      O.O                         ",
"                      O.O                         ",
"                      O.O                         ",
"                      O.O                         ",
"                      O.O                         ",
"                      O.O                         ",
"                      O.O                         ",
"                      O.O                         ",
"                      O.O                         ",
"                      O.O                         ",
"                      O.O                         ",
"                      O.O                         ",
"                      O.O                         ",
"                      O.O                         ",
"                      O.O                         ",
"                      O.O                         ",
"                      O.O                         ",
"                      O.O                         ",
"                      O.O                         ",
"                      O.O                         ",
"                      O.O                         ",
"                      O.O                         ",
"                      ..O                         ",
"                     @o.O@                        ",
"                    *&%%***                       ",
"                     @@@@@                        "
};
