/* XPM */
static char *d81f501853554a7d9448cc637784c1715s9sqt56Q9cpxqzn[] = {
/* columns rows colors chars-per-pixel */
"50 50 209 2 ",
"   c None",
".  c #64401E",
"X  c #6C492E",
"o  c #004A7B",
"O  c gray32",
"+  c #584B50",
"@  c #76645C",
"#  c #5C606A",
"$  c #656565",
"%  c #756264",
"&  c #727272",
"*  c #7A7A7A",
"=  c #870000",
"-  c #8A0000",
";  c #910000",
":  c #AC0101",
">  c #A50000",
",  c #BD0101",
"<  c #AB1616",
"1  c #872626",
"2  c #833030",
"3  c #AA2727",
"4  c #BD3939",
"5  c #CC0000",
"6  c #C50101",
"7  c #DF0000",
"8  c #C71414",
"9  c #E80000",
"0  c #FE0000",
"q  c #F90404",
"w  c #FF1919",
"e  c #C92323",
"r  c #FE2929",
"t  c #EC302F",
"y  c #915C2E",
"u  c #B07139",
"i  c #C77F39",
"p  c #974848",
"a  c #8D5952",
"s  c #A84D4D",
"d  c #AC765C",
"f  c #BA7C57",
"g  c #8B6C77",
"h  c #957474",
"j  c #B36C6C",
"k  c #A77563",
"l  c #AA6464",
"z  c #D84545",
"x  c #FB4747",
"c  c #ED5757",
"v  c #C47E40",
"b  c #F26D6D",
"n  c #C9813E",
"m  c #B0846F",
"M  c #CB8342",
"N  c #C88144",
"B  c #D18645",
"V  c #D68A45",
"C  c #DF904A",
"Z  c #E7954D",
"A  c #E89858",
"S  c #F49D54",
"D  c #FAA04F",
"F  c #FAA153",
"G  c #F8A25B",
"H  c #C98B65",
"J  c #D09372",
"K  c #E59864",
"L  c #EF9F6B",
"P  c #F6A76C",
"I  c #ECA079",
"U  c #004E81",
"Y  c #00548D",
"T  c #005287",
"R  c #005693",
"E  c #005A96",
"W  c #005C9A",
"Q  c #0B5A96",
"!  c #245B94",
"~  c #355D92",
"^  c #2C5681",
"/  c #366496",
"(  c #256199",
")  c #0061A1",
"_  c #0066AB",
"`  c #0068AE",
"'  c #0E65A4",
"]  c #1463A1",
"[  c #006CB5",
"{  c #006FBA",
"}  c #0271BC",
"|  c #3A6FAE",
" . c #546798",
".. c #666487",
"X. c #766984",
"o. c #76768F",
"O. c #5D79A1",
"+. c #6E74A4",
"@. c #0079C9",
"#. c #1B79C7",
"$. c #007ED3",
"%. c #85718A",
"&. c #A87D80",
"*. c #3781B6",
"=. c #7E8187",
"-. c #768BAB",
";. c #0080D6",
":. c #3985D5",
">. c #0089E6",
",. c #008DEC",
"<. c #0093F5",
"1. c #0096FA",
"2. c #0099FF",
"3. c #0C9AFE",
"4. c #0B96F8",
"5. c #169BFF",
"6. c #289BFC",
"7. c #328EE8",
"8. c #28A1FF",
"9. c #37A7FF",
"0. c #528DD4",
"q. c #6C8FDA",
"w. c #56A8DB",
"e. c #68ACDB",
"r. c #489CF9",
"t. c #6493E5",
"y. c #639AF2",
"u. c #44ADFF",
"i. c #45A8F3",
"p. c #4AB1FF",
"a. c #52B5FF",
"s. c #5BBAFE",
"d. c #57B8FF",
"f. c #5DAAEE",
"g. c #64BCF9",
"h. c #72BFFF",
"j. c #6BC6FF",
"k. c #6ECAFF",
"l. c #65C2FF",
"z. c #71CBFF",
"x. c #7FCEFF",
"c. c #8D8D8C",
"v. c #868686",
"b. c #939392",
"n. c #9C9C9C",
"m. c #908F8E",
"M. c #AD8385",
"N. c #B48687",
"B. c #B99696",
"V. c #A09A9A",
"C. c #A5A19F",
"Z. c #8A9DBC",
"A. c #9194AC",
"S. c #B08DA0",
"D. c #95A1B6",
"F. c #9AA0AC",
"G. c #A2A2A2",
"H. c #AAAAAB",
"J. c #BCA5A1",
"K. c #BCBBBB",
"L. c #B4B3B3",
"P. c #A7ADB7",
"I. c #CA9888",
"U. c #FB8484",
"Y. c #C9A99D",
"T. c #D9B39F",
"R. c #E6B395",
"E. c #F4B68D",
"W. c #D8B6A4",
"Q. c #D6BDB3",
"!. c #CBB2B2",
"~. c #FDB9B9",
"^. c #F6A9A9",
"/. c #CDC1BC",
"(. c #FBC8AB",
"). c #FDCFB5",
"_. c #8A95D5",
"`. c #99ABC6",
"'. c #9CB4DB",
"]. c #AAB6CD",
"[. c #8499E0",
"{. c #9AB9EC",
"}. c #BEC1C5",
"|. c #BBC4D5",
" X c #97C6F7",
".X c #8AD0FF",
"XX c #C3C3C3",
"oX c #CBCBCB",
"OX c #C7C8CA",
"+X c #CCD2DB",
"@X c #D3D3D4",
"#X c #DCDCDC",
"$X c #D9D8D8",
"%X c #CDCFD5",
"&X c #FCD9C6",
"*X c #E7DCD7",
"=X c #FAD9D9",
"-X c #E7D3C9",
";X c #FEE5D8",
":X c #D4DAE5",
">X c #D2E7FE",
",X c #E4E4E4",
"<X c #EDECEC",
"1X c #EEE3E2",
"2X c #FBE9E9",
"3X c #F6F6F6",
"4X c #FEFDFD",
"5X c #FDF7F5",
"6X c #E0F1FF",
/* pixels */
"                              E [ [ [ [ [ W                                                         ",
"                              ;.2.2.2.2.2.>.                                                        ",
"                      2.2.2.2.2.2.2.2.2.2.2.1.1.2.                                                  ",
"                    E E W 2.2.2.2.2.2.} R { 2.1.2.2.2.                                              ",
"                      E E ` ` ` @.2.2.{ &.J { 4.d.d.2.2.,.,.      E                                 ",
"                            E E ` ;.$.o.H K I.#.i.a.p.a.3.2.>.[ W E                                 ",
"                              R W _ E d C S G %.7.p.z.z.9.5.2.1.[ W                                 ",
"                              o @.<.) k C S G L _.p.z.z.k.9.2.2.1.[                                 ",
"                              <.1.1.) d n N.y.y.g.k.z.k.k.k.d.2.2.1.                                ",
"                      ;.$.$.2.2.2.2.>.q.q.q.5.s.j.z..X6Xz.z.s.2.2.2._                               ",
"                  ` >.2.2.2.2.2.8.p.p.p.p.p.p.k.f.w.e.+Xs.j.l.u.3.2.$.                              ",
"                2.2.2.2.2.2.2.2.9.l.z..X.Xk.l.g.*./ O.-.f.l.j.l.5.2.r.0.                            ",
"              1.1.1.2.1.1.1.1.2.2.6.j.6X>Xs.4.' ( A.oX4XOX Xs.4.2.2.'.G.                            ",
"            ;.` ` ` ` ` ` ` [ >.2.3.8..Xj.8.1.] D.@X3X4X3X+X`.} 2.2.'.G.                            ",
"            } E E E E E E E E { @.$.1.9.9.2.2.( P.#X4X4X4X<X%XD.#.1.'.G.                            ",
"              U U U U T E E E E E ) 1.2.2.2.2.} `.#X4X4X4X4X,XH.D.:.'.G.                            ",
"                          R E E E ) <.2.2.2.2.5.].#X4X4X4X4XoX$ 4X& n.G.                            ",
"                            Y R E E E >.2.2.2.5.'.#X4X4X4X4XoX$ 3X& n.                              ",
"                            1.@.E E E W ;.t.m I P R.@X4X4X4X4X<XJ <XH.                              ",
"                          2.2.,.@.E E W +.S.S &XE.P R.).*X,X-X(.A J.                                ",
"                        2.2.,.,.;.W E E g V P ;XE.F F D Q.Q.R.F F y                                 ",
"                      2.2.2._ E E E E E g B F G F F F F G G F F F M                                 ",
"                    2.,.) ) W E W E E E ! X.n N S Z N F F F Z N N                                   ",
"                  <.;.            E E E E ~ ....m M n B B M u .                                     ",
"                                  W W R W R W W & g g g g a .                                       ",
"                                E R W ..X.%.%.( [  ...%._.% @ m.c.& &                               ",
"                              o E Q ~ k Z S K  .7._.B P 4XT./.5X4X@X/.H.                            ",
"                              E E ~ d A S K  .7.%.J P 5X4X5X#XJ.4X4X3X,X                            ",
"                            R o + h m !.W./.:X>XY.V G (.4X&XW.G.4X,XoX@X,X                          ",
"                                X m G.K.XX$X4X4X-XR.Z D ;XP K n.1X].K.$X<X                          ",
"                                O m./.XXoX#X4X4X4X*XH S S E.I.b.K.n.$X3X,X                          ",
"                                O m.}.XX,X4X4X4X4X<X!.f S [.0.c.m.K.XXXX                            ",
"                                O b.}.<X4X4X4X4X#XXX}.6.r.! # b.K.XXH.                              ",
"                                  c.n.oX<X3X#X3X$XK.F.2.2.Y     n.G.*                               ",
"                                    c.K.,X3XOX<XoXG.o.>.2.Y       *                                 ",
"                                      L.,X<X/.}.n.    E 2.Y                                         ",
"                                      * m.b.c.c.      E 1.Y                                         ",
"                                      ^ / | 7.      =.R 2.T                                         ",
"                                      A.-.[ <.    G.$XR 2.`.                                        ",
"                                    n.K.K.'. X=.v.K.,X`. X|.n.                                      ",
"                                  m.K.K.#X3X3XXXn.G.oX3X3X@Xn.                                      ",
"                                  c.b.b.L.oXXXb.c.c.n.oXoXG.&                                       ",
"                                  + p z c b l + p M.K.XXj s 4 7                                     ",
"                                  1 N.~.~.~.!.K.h a B.B.< 5 9 x ~.!.K.B.                            ",
"                                  j !.=X2X2X2X1XV.a : : : 7 x U.3X4X2X~.q ;                         ",
"                                  !.t q 0 w x , B.B.> : : 3 M.K.XX<X^.0 0 w x                       ",
"                                  3 : 9 0 U.2Xx e 1   : : h m.b.!.l t 0 q r =X~.                    ",
"                                  : : , 9 x U.r 5     : : h c.c.n.s , 6 5 8 b b 0                   ",
"                                    = = : 5 5 5         - % & & & 2 = = = - , 5 5                   ",
"                                                                                                    "
};
